<?xml version="1.0" encoding="utf-8"?>
<!-- Generated by IcoMoon.io -->
<!DOCTYPE svg PUBLIC "-//W3C//DTD SVG 1.1//EN" "http://www.w3.org/Graphics/SVG/1.1/DTD/svg11.dtd">
<svg version="1.1" xmlns="http://www.w3.org/2000/svg" xmlns:xlink="http://www.w3.org/1999/xlink" width="32" height="32" viewBox="0 0 32 32">
<path fill="#ff3a2f" d="M29.803 6.985c0-0.967-0.792-1.751-1.768-1.751 0.976 0 1.768-0.784 1.768-1.751s-0.792-1.751-1.768-1.751c-0.683 0-1.275 0.384-1.569 0.946-0.32-0.447-0.846-0.74-1.442-0.74-0.562 0-1.061 0.26-1.385 0.665-0.307-0.521-0.875-0.871-1.527-0.871-0.976 0-1.768 0.784-1.768 1.751h-0.011c0-0.967-0.792-1.751-1.768-1.751-0.768 0-1.42 0.486-1.664 1.164-0.244-0.678-0.896-1.164-1.664-1.164-0.976 0-1.768 0.784-1.768 1.751h-0.099c0-0.967-0.791-1.751-1.768-1.751s-1.768 0.784-1.768 1.751c0-0.967-0.792-1.751-1.768-1.751-0.768 0-1.42 0.486-1.664 1.164-0.244-0.678-0.896-1.164-1.664-1.164-0.976 0-1.768 0.784-1.768 1.751s0.792 1.751 1.768 1.751c-0.976 0-1.768 0.784-1.768 1.751s0.792 1.751 1.768 1.751v0.217c-0.976 0-1.768 0.784-1.768 1.751s0.792 1.751 1.768 1.751c-0.976 0-1.768 0.784-1.768 1.751s0.792 1.751 1.768 1.751v0.098c-0.976 0-1.768 0.784-1.768 1.751s0.792 1.752 1.768 1.752c-0.976 0-1.768 0.784-1.768 1.751s0.792 1.751 1.768 1.751c-0.976 0-1.768 0.784-1.768 1.751s0.792 1.751 1.768 1.751v0.098c-0.976 0-1.768 0.784-1.768 1.751s0.792 1.752 1.768 1.752c0.788 0 1.455-0.511 1.683-1.216 0.258 0.651 0.896 1.113 1.645 1.113 0.941 0 1.709-0.729 1.763-1.649h0.010c0.054 0.919 0.822 1.649 1.763 1.649s1.709-0.729 1.763-1.649h0.109c0.054 0.919 0.821 1.649 1.763 1.649 0.768 0 1.42-0.486 1.664-1.164 0.244 0.678 0.896 1.164 1.664 1.164 0.941 0 1.709-0.729 1.763-1.649h0.021c0.054 0.919 0.822 1.649 1.763 1.649 0.562 0 1.061-0.261 1.385-0.665 0.306 0.52 0.875 0.871 1.527 0.871 0.659 0 1.233-0.358 1.537-0.888 0.317 0.473 0.858 0.785 1.474 0.785 0.976 0 1.768-0.784 1.768-1.752s-0.792-1.751-1.768-1.751v-0.098c0.976 0 1.768-0.784 1.768-1.751s-0.792-1.751-1.768-1.751c0.976 0 1.768-0.784 1.768-1.751s-0.792-1.751-1.768-1.751c0.976 0 1.768-0.784 1.768-1.752s-0.792-1.751-1.768-1.751v-0.098c0.976 0 1.768-0.784 1.768-1.751s-0.792-1.751-1.768-1.751c0.976 0 1.768-0.784 1.768-1.751s-0.792-1.751-1.768-1.751v-0.217c0.976 0 1.768-0.784 1.768-1.751z"></path>
<path fill="#fff" d="M25.192 25.822h-17.611v-19.644h17.611v19.644z"></path>
<path opacity="0.35" fill="#020403" d="M8.726 24.689v-18.51h-1.144v19.644h17.611v-1.133h-16.466z"></path>
<path fill="#142a3b" d="M13.258 22.864c-0.966-1.314-0.712-5.471 0.667-8.337 0 0-2.821 0.313-2.677 4.226 0 0-2.459-5.322 1.664-6.339 0 0-1.302-3.365-4.485-2.035 0 0 2.561-3.11 6.233 0.544 0.383-1.144 0.133-2.767 0.133-2.767 1.516 0.8 1.787 2.282 1.773 3.296 1.338-0.272 3.679 0.294 4.358 2.918 0 0-2.555-1.926-4.568-0.754 0 0 3.572 1.068 3.717 4.747 0 0-1.489-1.98-3.024-2.465 0.125 0.129 0.203 0.308 0.203 0.509 0 0.389-0.292 0.704-0.651 0.704-0.131 0-0.252-0.042-0.354-0.114 0.084 0.119 0.136 0.265 0.136 0.427 0 0.389-0.292 0.705-0.651 0.705-0.313 0-0.574-0.239-0.636-0.557-0.19 1.456-0.21 3.775 1.054 5.629 0 0-2.345 0.41-2.893-0.336z"></path>
<path fill="#142a3b" d="M29.315 24.94c-1.884 0-3.793-1.215-3.821-1.234-2.886-2.256-6.572-0.020-6.609 0.003-0.123 0.077-0.289 0.040-0.367-0.084s-0.040-0.287 0.085-0.364c0.040-0.025 4.045-2.453 7.202 0.017 0.020 0.012 3.957 2.515 5.711 0.055 0.084-0.119 0.252-0.147 0.371-0.063 0.12 0.084 0.149 0.249 0.064 0.368-0.697 0.979-1.664 1.303-2.636 1.303z"></path>
<path fill="#142a3b" d="M29.315 26.37c-1.884 0-3.793-1.215-3.821-1.234-2.886-2.256-6.572-0.020-6.609 0.003-0.123 0.077-0.289 0.040-0.367-0.084s-0.040-0.287 0.085-0.364c0.040-0.025 4.045-2.453 7.202 0.017 0.020 0.012 3.957 2.516 5.711 0.055 0.085-0.12 0.253-0.147 0.371-0.063 0.12 0.084 0.149 0.249 0.064 0.368-0.697 0.979-1.664 1.303-2.636 1.303z"></path>
<path fill="#142a3b" d="M29.315 27.8c-1.884 0-3.793-1.215-3.821-1.234-2.886-2.256-6.572-0.020-6.609 0.003-0.123 0.077-0.289 0.040-0.367-0.084s-0.040-0.286 0.085-0.364c0.040-0.025 4.045-2.453 7.202 0.017 0.020 0.012 3.957 2.516 5.711 0.055 0.085-0.12 0.253-0.147 0.371-0.064 0.12 0.084 0.149 0.249 0.064 0.368-0.697 0.979-1.664 1.302-2.636 1.303z"></path>
<path fill="#142a3b" d="M5.218 27.158c-2.877 0-5.218-2.319-5.218-5.169s2.341-5.169 5.218-5.169c2.877 0 5.218 2.319 5.218 5.169s-2.341 5.169-5.218 5.169zM5.218 17.348c-2.583 0-4.684 2.082-4.684 4.641s2.101 4.641 4.684 4.641c2.583 0 4.684-2.082 4.684-4.641s-2.102-4.641-4.684-4.641z"></path>
<path fill="#142a3b" d="M5.218 25.913c-2.184 0-3.961-1.76-3.961-3.924s1.777-3.924 3.961-3.924 3.961 1.76 3.961 3.924-1.777 3.924-3.961 3.924zM5.218 18.593c-1.89 0-3.428 1.523-3.428 3.396s1.538 3.396 3.428 3.396c1.89 0 3.428-1.523 3.428-3.396s-1.538-3.396-3.428-3.396z"></path>
<path fill="#fbb713" d="M23.498 9.137c0 0.732-0.599 1.325-1.337 1.325s-1.337-0.593-1.337-1.325c0-0.732 0.598-1.325 1.337-1.325s1.337 0.593 1.337 1.325z"></path>
<path fill="#0cb04a" d="M12.132 19.006h0.435c0.084 0 0.152 0.058 0.152 0.129s-0.068 0.129-0.152 0.129h-0.020c-0.084 0-0.152 0.058-0.152 0.129s0.068 0.129 0.152 0.129h0.936c0.084 0 0.152 0.058 0.152 0.129s-0.068 0.129-0.152 0.129h-3.149c-0.084 0-0.152-0.058-0.152-0.129s0.068-0.129 0.152-0.129h0.26c0.084 0 0.152-0.058 0.152-0.129s-0.068-0.129-0.152-0.129h-1.237c-0.084 0-0.152-0.058-0.152-0.129s0.068-0.129 0.152-0.129h2.774z"></path>
<path fill="#0cb04a" d="M22.505 20.505h0.56c0.108 0 0.195 0.074 0.195 0.166s-0.087 0.166-0.195 0.166h-0.026c-0.108 0-0.196 0.074-0.196 0.166s0.087 0.166 0.196 0.166h1.203c0.108 0 0.195 0.074 0.195 0.166s-0.087 0.166-0.195 0.166h-4.047c-0.108 0-0.195-0.074-0.195-0.166s0.087-0.166 0.195-0.166h0.334c0.108 0 0.195-0.074 0.195-0.166s-0.087-0.166-0.195-0.166h-1.59c-0.108 0-0.195-0.074-0.195-0.166s0.087-0.166 0.195-0.166h3.565z"></path>
<path fill="#2476ff" d="M14.088 8.57h0.453c0.087 0 0.158 0.042 0.158 0.093s-0.071 0.093-0.158 0.093h-0.021c-0.087 0-0.158 0.042-0.158 0.093s0.071 0.093 0.158 0.093h0.974c0.087 0 0.158 0.042 0.158 0.093s-0.071 0.093-0.158 0.093h-3.274c-0.087 0-0.158-0.042-0.158-0.093s0.071-0.093 0.158-0.093h0.27c0.087 0 0.158-0.042 0.158-0.093s-0.071-0.093-0.158-0.093h-1.286c-0.087 0-0.158-0.042-0.158-0.093s0.071-0.093 0.158-0.093h2.885z"></path>
<path fill="#2476ff" d="M21.336 8.857h0.314c0.060 0 0.11 0.042 0.11 0.093s-0.049 0.093-0.11 0.093h-0.015c-0.061 0-0.11 0.041-0.11 0.093s0.049 0.093 0.11 0.093h0.674c0.060 0 0.109 0.042 0.109 0.093s-0.049 0.093-0.109 0.093h-2.267c-0.061 0-0.11-0.042-0.11-0.093s0.049-0.093 0.11-0.093h0.187c0.060 0 0.11-0.042 0.11-0.093s-0.049-0.093-0.11-0.093h-0.89c-0.061 0-0.11-0.042-0.11-0.093s0.049-0.093 0.11-0.093h1.997z"></path>
<path fill="#0cb04a" d="M16.013 22.826h0.819c0.158 0 0.286 0.109 0.286 0.243s-0.128 0.243-0.286 0.243h-0.038c-0.158 0-0.286 0.109-0.286 0.243s0.128 0.243 0.286 0.243h1.761c0.158 0 0.286 0.109 0.286 0.243s-0.128 0.243-0.286 0.243h-5.922c-0.158 0-0.286-0.109-0.286-0.243s0.128-0.243 0.286-0.243h0.489c0.158 0 0.286-0.109 0.286-0.243s-0.128-0.243-0.286-0.243h-2.326c-0.158 0-0.286-0.109-0.286-0.243s0.128-0.243 0.286-0.243h5.217z"></path>
</svg>
